<svg xmlns="http://www.w3.org/2000/svg" viewBox="0 0 800 500" width="800" height="500">
  <defs>
    <linearGradient id="bg2" x1="0%" y1="0%" x2="100%" y2="100%">
      <stop offset="0%" style="stop-color:#0F1319;stop-opacity:1" />
      <stop offset="100%" style="stop-color:#1a2035;stop-opacity:1" />
    </linearGradient>
    <linearGradient id="btn2" x1="0%" y1="0%" x2="100%" y2="0%">
      <stop offset="0%" style="stop-color:#4A9EE8;stop-opacity:1" />
      <stop offset="100%" style="stop-color:#8B5CF6;stop-opacity:1" />
    </linearGradient>
  </defs>
  <rect width="800" height="500" fill="url(#bg2)" rx="12"/>
  <circle cx="130" cy="150" r="34" fill="none" stroke="url(#btn2)" stroke-width="4"/>
  <text x="130" y="157" font-family="Arial" font-size="24" font-weight="bold" fill="white" text-anchor="middle">1</text>
  <text x="185" y="140" font-family="Arial" font-size="16" font-weight="bold" fill="white">Επιλογή Παρόχου</text>
  <text x="185" y="162" font-family="Arial" font-size="12" fill="#8AAEC8">greek iptv</text>

  <circle cx="400" cy="150" r="34" fill="none" stroke="url(#btn2)" stroke-width="4"/>
  <text x="400" y="157" font-family="Arial" font-size="24" font-weight="bold" fill="white" text-anchor="middle">2</text>
  <text x="455" y="140" font-family="Arial" font-size="16" font-weight="bold" fill="white">IPTV Player</text>
  <text x="455" y="162" font-family="Arial" font-size="12" fill="#8AAEC8">TiviMate / Smarters</text>

  <circle cx="670" cy="150" r="34" fill="none" stroke="url(#btn2)" stroke-width="4"/>
  <text x="670" y="157" font-family="Arial" font-size="24" font-weight="bold" fill="white" text-anchor="middle">3</text>
  <text x="600" y="200" font-family="Arial" font-size="16" font-weight="bold" fill="white" text-anchor="middle">Imedi Live</text>

  <line x1="164" y1="150" x2="366" y2="150" stroke="#4A9EE8" stroke-width="2" opacity="0.4"/>
  <line x1="434" y1="150" x2="636" y2="150" stroke="#4A9EE8" stroke-width="2" opacity="0.4"/>

  <rect x="250" y="300" width="300" height="140" rx="12" fill="#1e2a3a" stroke="#4A9EE8" stroke-width="2"/>
  <circle cx="400" cy="360" r="32" fill="none" stroke="#4A9EE8" stroke-width="3" opacity="0.7"/>
  <polygon points="390,345 390,375 415,360" fill="#4A9EE8"/>
  <text x="400" y="410" font-family="Arial" font-size="14" fill="#8AAEC8" text-anchor="middle">Imedi TV — Ζωντανά</text>
  <text x="400" y="470" font-family="Arial, sans-serif" font-size="18" font-weight="bold" fill="url(#btn2)" text-anchor="middle">greekiptv.tv</text>
</svg>
