<svg xmlns="http://www.w3.org/2000/svg" viewBox="0 0 800 500" width="800" height="500">
  <defs>
    <linearGradient id="bg" x1="0%" y1="0%" x2="100%" y2="100%">
      <stop offset="0%" style="stop-color:#0F1319;stop-opacity:1" />
      <stop offset="100%" style="stop-color:#1a2035;stop-opacity:1" />
    </linearGradient>
    <linearGradient id="screen" x1="0%" y1="0%" x2="0%" y2="100%">
      <stop offset="0%" style="stop-color:#1e2a3a;stop-opacity:1" />
      <stop offset="100%" style="stop-color:#0d1520;stop-opacity:1" />
    </linearGradient>
    <linearGradient id="btn" x1="0%" y1="0%" x2="100%" y2="0%">
      <stop offset="0%" style="stop-color:#4A9EE8;stop-opacity:1" />
      <stop offset="100%" style="stop-color:#8B5CF6;stop-opacity:1" />
    </linearGradient>
  </defs>
  <rect width="800" height="500" fill="url(#bg)" rx="12"/>
  <rect x="220" y="70" width="360" height="230" rx="14" fill="#2a2f3e" stroke="#4A9EE8" stroke-width="2"/>
  <rect x="236" y="86" width="328" height="180" fill="url(#screen)" rx="6"/>
  <circle cx="400" cy="176" r="42" fill="none" stroke="#4A9EE8" stroke-width="3" opacity="0.6"/>
  <polygon points="388,158 388,194 422,176" fill="#4A9EE8"/>
  <rect x="236" y="86" width="328" height="8" fill="#4A9EE8" rx="2"/>
  <rect x="300" y="310" width="200" height="14" rx="4" fill="#2a2f3e"/>
  <rect x="360" y="324" width="80" height="20" rx="4" fill="#2a2f3e"/>
  <text x="400" y="130" font-family="Arial, sans-serif" font-size="24" font-weight="bold" fill="white" text-anchor="middle">Imedi TV Live</text>
  <text x="400" y="230" font-family="Arial, sans-serif" font-size="14" fill="#4A9EE8" text-anchor="middle">IPTV GE</text>
  <circle cx="140" cy="380" r="4" fill="#4A9EE8"/>
  <text x="152" y="384" font-family="Arial, sans-serif" font-size="14" fill="#ccc">30+ Γεωργιανά Κανάλια</text>
  <circle cx="140" cy="405" r="4" fill="#8B5CF6"/>
  <text x="152" y="409" font-family="Arial, sans-serif" font-size="14" fill="#ccc">Live &amp; On-Demand</text>
  <circle cx="140" cy="430" r="4" fill="#4A9EE8"/>
  <text x="152" y="434" font-family="Arial, sans-serif" font-size="14" fill="#ccc">4K Ultra HD Ποιότητα</text>
  <text x="400" y="460" font-family="Arial, sans-serif" font-size="18" font-weight="bold" fill="url(#btn)" text-anchor="middle">greekiptv.tv</text>
  <path d="M 170 176 Q 180 161 190 176 Q 200 191 210 176" stroke="#4A9EE8" stroke-width="2" fill="none" opacity="0.5"/>
  <path d="M 155 176 Q 172 146 190 176 Q 208 206 225 176" stroke="#4A9EE8" stroke-width="2" fill="none" opacity="0.3"/>
</svg>
